<svg height="435pt" viewBox="0 0 435 435.2893" width="435pt" xmlns="http://www.w3.org/2000/svg"><path d="m391.050781 17.574219c-23.429687-23.433594-61.417969-23.433594-84.851562 0l-271.667969 271.671875c-.292969.292968-.566406.609375-.820312.9375-.0625.082031-.121094.167968-.183594.25-.199219.273437-.386719.558594-.558594.851562-.039062.066406-.082031.132813-.121094.203125-.203125.371094-.386718.753907-.542968 1.144531-.007813.019532-.011719.039063-.019532.054688-.140625.367188-.261718.746094-.355468 1.125-.011719.046875-.035157.089844-.042969.136719l-31.457031 128.96875c-.828126 3.394531.175781 6.972656 2.644531 9.441406s6.046875 3.472656 9.4375 2.644531l128.976562-31.460937c.050781-.011719.09375-.03125.140625-.042969.378906-.097656.75-.214844 1.113282-.351562.019531-.007813.042968-.015626.0625-.023438.390624-.15625.773437-.339844 1.140624-.542969.070313-.039062.140626-.082031.210938-.125.289062-.171875.574219-.355469.847656-.554687.082032-.0625.164063-.121094.246094-.183594.332031-.253906.644531-.527344.941406-.820312l271.667969-271.664063c23.394531-23.449219 23.394531-61.410156 0-84.855469zm-251.929687 362.113281-18.355469-18.351562 221.472656-221.472657 18.355469 18.351563zm-32.5-32.5-18.386719-18.382812 221.480469-221.46875 18.382812 18.382812zm-32.527344-32.527344-18.351562-18.347656 221.476562-221.46875 18.351562 18.355469zm-27 1.292969 72.371094 72.371094-95.707032 23.351562zm356.625-200.863281-28.980469 28.984375-83.378906-83.375 28.984375-28.984375c15.621094-15.617188 40.945312-15.617188 56.566406 0l26.808594 26.808594c15.59375 15.628906 15.59375 40.9375 0 56.566406zm0 0"/></svg>